<svg id="comprometimento" xmlns="http://www.w3.org/2000/svg" viewBox="0 0 60 60">
  <defs>
    <style>
      .cls-1 {
        fill: #0f70b8;
      }
    </style>
  </defs>
  <g id="Group_32" data-name="Group 32">
    <path id="Path_21" data-name="Path 21" class="cls-1" d="M51.213,8.787A30,30,0,0,0,8.787,51.213,30,30,0,0,0,51.213,8.787ZM31.883,43.055h-.125v3.891a1.758,1.758,0,0,1-3.516,0V43.055H24.352a1.758,1.758,0,0,1,0-3.516h7.531a3.891,3.891,0,0,0,0-7.781H28.117a7.406,7.406,0,0,1,0-14.812h.125V13.055a1.758,1.758,0,1,1,3.516,0v3.891h3.891a1.758,1.758,0,0,1,0,3.516H28.117a3.891,3.891,0,0,0,0,7.781h3.766a7.406,7.406,0,0,1,0,14.813Z"/>
  </g>
</svg>
