<svg xmlns="http://www.w3.org/2000/svg" viewBox="0 0 90 89.772">
  <defs>
    <style>
      .cls-1 {
        fill: #0f70b8;
      }
    </style>
  </defs>
  <g id="instalacao" transform="translate(0 -0.033)">
    <g id="Group_1" data-name="Group 1" transform="translate(10.613 0.033)">
      <path id="Path_1" data-name="Path 1" class="cls-1" d="M71.84,38.653v-8.6L61.611,28.383A25,25,0,0,0,58.8,21.595l5.964-8.5L58.683,7.018l-8.391,6.033a24.519,24.519,0,0,0-6.823-2.838L41.683.033h-8.6L31.43,10.182a24.69,24.69,0,0,0-6.843,2.811L16.22,7.018l-6.078,6.075,5.885,8.415a24.984,24.984,0,0,0-2.856,6.864l-10.1,1.679v8.6L13.16,40.436a24.852,24.852,0,0,0,2.852,6.871l-5.964,8.339,6.078,6.082,8.425-5.9A24.7,24.7,0,0,0,31.4,58.651l1.689,10.156h8.6l1.8-10.18A24.913,24.913,0,0,0,50.3,55.774l8.484,5.957,6.075-6.082L58.8,47.241a24.851,24.851,0,0,0,2.807-6.8ZM37.453,46.411A11.989,11.989,0,1,1,49.44,34.42,11.989,11.989,0,0,1,37.453,46.411Z" transform="translate(-3.066 -0.033)"/>
    </g>
    <path id="Path_2" data-name="Path 2" class="cls-1" d="M83.077,18.967V32.813a3.465,3.465,0,0,1-3.462,3.462H10.385a3.465,3.465,0,0,1-3.462-3.462V18.967H0V32.813A10.388,10.388,0,0,0,10.385,43.2H79.615A10.388,10.388,0,0,0,90,32.813V18.967Z" transform="translate(0 46.607)"/>
  </g>
</svg>
