<svg xmlns="http://www.w3.org/2000/svg" viewBox="0 0 90 105.484">
  <defs>
    <style>
      .cls-1 {
        fill: #0f70b8;
      }
    </style>
  </defs>
  <g id="manutencao" transform="translate(-25.662)">
    <path id="Path_3" data-name="Path 3" class="cls-1" d="M115.64,221.305c-1.245-7.742-3.808-17.716-8.95-21.26-3.511-2.421-15.761-8.966-20.992-11.76l-.09-.048a1.709,1.709,0,0,0-1.861.163,22.223,22.223,0,0,1-8.922,4.309,1.709,1.709,0,0,0-1.227,1.062l-2.936,7.74-2.936-7.74a1.71,1.71,0,0,0-1.227-1.062,22.227,22.227,0,0,1-8.922-4.309,1.709,1.709,0,0,0-1.861-.163l-.091.048c-5.231,2.794-17.481,9.339-20.992,11.76-5.142,3.544-7.7,13.518-8.95,21.26a1.713,1.713,0,0,0,.076.843c.211.6,5.619,14.572,44.9,14.644,39.283-.072,44.691-14.048,44.9-14.644A1.71,1.71,0,0,0,115.64,221.305ZM96.2,215.676H80.718v-3.261H96.2Z" transform="translate(0 -131.308)"/>
    <path id="Path_4" data-name="Path 4" class="cls-1" d="M119.067,59.485c6.662,0,24.088-9.037,24.088-29.741,0-2.927-.072-5.755-.313-8.427-.4-5.26-1.473-9.92-4.156-13.493C135.281,3.012,129.344.057,119.067,0c-10.276.057-16.214,3.012-19.62,7.824-2.683,3.572-3.76,8.233-4.156,13.493-.241,2.672-.313,5.5-.313,8.427C94.979,50.447,112.405,59.485,119.067,59.485Zm15.467-29.746a4.808,4.808,0,0,1,.517,2.106c.006,1.416-.269,3.931-2.186,4.86a8.929,8.929,0,0,1-3.66.7c-2.635,0-4.729-.877-5.6-2.346-1.884-3.165-1.254-5-1.249-5.014.049-.121.625-1.192,5.7-1.488.877-.051,1.619-.076,2.267-.076C133.147,28.484,134.028,28.964,134.534,29.738ZM119.067,9.6a27.333,27.333,0,0,1,7.66,1.3l-1.777,4.488a22.731,22.731,0,0,0-5.883-.966,22.731,22.731,0,0,0-5.883.966l-1.777-4.488A27.355,27.355,0,0,1,119.067,9.6Zm0,11.257a20.522,20.522,0,0,1,14.417,5.809c-1.054-.1-2.162-.15-3.318-.15-.977,0-1.985.037-3,.11l-.177.013a12.289,12.289,0,0,0-4.581.845c-.28.125-.59.276-.924.447a8.03,8.03,0,0,1-1.541.6,3.339,3.339,0,0,1-1.757,0,8.07,8.07,0,0,1-1.541-.6c-.334-.171-.644-.322-.924-.447a12.3,12.3,0,0,0-4.581-.845l-.177-.013c-1.012-.073-2.021-.11-3-.11q-1.734,0-3.318.15A20.523,20.523,0,0,1,119.067,20.855ZM103.6,29.738c.506-.774,1.387-1.254,4.214-1.254.648,0,1.39.025,2.267.076,5.075.3,5.651,1.366,5.7,1.488.005.015.635,1.849-1.249,5.014-.874,1.469-2.968,2.346-5.6,2.346a8.929,8.929,0,0,1-3.66-.7c-1.917-.929-2.192-3.444-2.186-4.86A4.8,4.8,0,0,1,103.6,29.738Zm-4.993-4.546a7.256,7.256,0,0,0,1.969,2.623,1.663,1.663,0,0,0-.325.914c-.011.2,0,.557,0,.873v.043c0,.18.008.342.006.435a1.593,1.593,0,0,0,.476,1.277.939.939,0,0,1,.109.132,1.232,1.232,0,0,1,.144.429c.748,4.54.931,5.324,2.988,6.407a11.942,11.942,0,0,0,4.816.84,12.253,12.253,0,0,0,5.492-1.147c2.7-1.409,3.681-6.171,3.722-6.373.021-.149.231-.37.9-.37h.312c.672,0,.882.221.9.37.041.2,1.024,4.964,3.722,6.373a12.253,12.253,0,0,0,5.492,1.147,11.942,11.942,0,0,0,4.816-.84c2.057-1.083,2.24-1.867,2.988-6.407a1.234,1.234,0,0,1,.144-.429.956.956,0,0,1,.109-.132,1.593,1.593,0,0,0,.476-1.277c0-.094,0-.255.006-.435V29.6c.007-.316.014-.67,0-.873a1.663,1.663,0,0,0-.325-.914,7.252,7.252,0,0,0,1.969-2.623c.057,1.506.078,3.031.078,4.551,0,10.259-4.53,16.615-8.33,20.141-4.6,4.27-10.36,6.043-12.208,6.043s-7.606-1.774-12.208-6.043c-3.8-3.526-8.33-9.882-8.33-20.141C98.53,28.223,98.551,26.7,98.608,25.192Z" transform="translate(-48.405)"/>
  </g>
</svg>
