<svg xmlns="http://www.w3.org/2000/svg" viewBox="0 0 54 95.472">
  <defs>
    <style>
      .cls-1 {
        fill: #0f70b8;
      }
    </style>
  </defs>
  <g id="recarga" transform="translate(-98.304)">
    <g id="Group_6" data-name="Group 6" transform="translate(98.304)">
      <g id="Group_5" data-name="Group 5">
        <path id="Path_8" data-name="Path 8" class="cls-1" d="M137.724,19.548V13.392h1.4a6.73,6.73,0,0,0,6.7-6.7,6.73,6.73,0,0,0-6.7-6.7H111.48a6.73,6.73,0,0,0-6.7,6.7,6.73,6.73,0,0,0,6.7,6.7h1.4v6.156A15.592,15.592,0,0,0,98.3,35.1V52.056h54V35.1A15.592,15.592,0,0,0,137.724,19.548Zm-5.4-.108H128V17.064h-5.4V19.44h-4.32V13.284h14.04Z" transform="translate(-98.304)"/>
      </g>
    </g>
    <g id="Group_8" data-name="Group 8" transform="translate(98.304 57.456)">
      <g id="Group_7" data-name="Group 7">
        <path id="Path_9" data-name="Path 9" class="cls-1" d="M98.3,272.384v17.28a15.763,15.763,0,0,0,8.64,14.04v6.7h36.72v-6.7a15.763,15.763,0,0,0,8.64-14.04v-17.28h-54Z" transform="translate(-98.304 -272.384)"/>
      </g>
    </g>
  </g>
</svg>
