<svg xmlns="http://www.w3.org/2000/svg" viewBox="0 0 85 82.284">
  <defs>
    <style>
      .cls-1 {
        fill: #0f70b8;
      }
    </style>
  </defs>
  <g id="reparo" transform="translate(0 -0.428)">
    <path id="Path_5" data-name="Path 5" class="cls-1" d="M23.516,38.115A8.83,8.83,0,0,1,29.4,36.664l23.224-23.23L39.62.428,16.393,23.658a8.771,8.771,0,0,1-1.511,5.96Z" transform="translate(32.373 0)"/>
    <path id="Path_6" data-name="Path 6" class="cls-1" d="M13.517,31.313l-.841-.841-4.4,3.559L.854,45.719l1.9,1.9L14.45,40.2l3.556-4.391-.845-.854L31.933,20.181l-3.671-3.62Z" transform="translate(1.859 35.093)"/>
    <path id="Path_7" data-name="Path 7" class="cls-1" d="M35.577,24.066A18.1,18.1,0,0,0,13.385,1.7L23.65,11.958,20.958,22.011,10.892,24.7.63,14.448A18.128,18.128,0,0,0,23.771,36.414l.057.057L66.056,78.7a8.557,8.557,0,0,0,12.1-12.1Zm37.265,53.2A3.267,3.267,0,1,1,76.115,74,3.262,3.262,0,0,1,72.841,77.264Z" transform="translate(0 1.38)"/>
  </g>
</svg>
