<svg xmlns="http://www.w3.org/2000/svg" width="49" height="49" viewBox="0 0 49 49"><path d="M24.506,0h-.012A24.485,24.485,0,0,0,4.664,38.86l-3.053,9.1,9.417-3.01A24.5,24.5,0,1,0,24.506,0Z" fill="#fff"/><path d="M135.761,140.479c-.591,1.669-2.937,3.053-4.808,3.458-1.28.273-2.952.49-8.581-1.844-7.2-2.983-11.837-10.3-12.2-10.774-.346-.475-2.909-3.874-2.909-7.39a7.822,7.822,0,0,1,2.505-5.963,3.56,3.56,0,0,1,2.505-.879c.3,0,.576.015.821.028.72.031,1.081.074,1.556,1.21.591,1.424,2.03,4.94,2.2,5.3a1.458,1.458,0,0,1,.1,1.326,4.234,4.234,0,0,1-.793,1.124c-.361.417-.7.735-1.066,1.182-.331.389-.7.805-.288,1.525a21.747,21.747,0,0,0,3.975,4.94,18.012,18.012,0,0,0,5.745,3.543,1.549,1.549,0,0,0,1.727-.273,29.647,29.647,0,0,0,1.914-2.536,1.367,1.367,0,0,1,1.758-.533c.661.23,4.162,1.96,4.882,2.318s1.194.533,1.369.836A6.1,6.1,0,0,1,135.761,140.479Z" transform="translate(-96.999 -105.882)" fill="#0f70b8"/></svg>